<svg width="62" height="20" viewBox="0 0 62 20" fill="none" xmlns="http://www.w3.org/2000/svg">
<path d="M5.82786 4.79044V8.85947H9.71215V12.9028H5.82786V19.2449H0.75V0.748718H9.71215V4.79044H5.82786Z" fill="#212B36"/>
<path d="M27.532 19.2449H22.8638L22.8124 9.4426L19.6397 12.159L16.4414 9.70605V19.2449H11.7474V0.748718H15.9289L19.6397 4.17037L23.2975 0.748718H27.4806L27.532 19.2449Z" fill="#212B36"/>
<path d="M35.0902 16.4626H33.6637V14.1365H38.915V8.40646C38.915 7.47474 38.16 6.71973 37.2283 6.71973H31.548C30.9456 6.71973 30.5103 6.85948 30.2404 7.13579C29.9706 7.4137 29.8372 7.83779 29.8372 8.40806V17.6369C29.8372 18.2088 29.9722 18.6329 30.2404 18.9092C30.5103 19.1871 30.9456 19.3252 31.548 19.3252H37.2267C38.16 19.3252 38.915 18.5686 38.915 17.6369V14.8192H35.0886V16.4626H35.0902ZM33.6637 9.58395H35.0902V11.6883H33.6637V9.58395Z" fill="#212B36"/>
<path d="M46.123 19.3268C46.123 19.3268 42.915 19.375 42.772 19.375C42.0588 19.375 41.5367 19.1999 41.2042 18.8481C40.8717 18.4979 40.7046 17.9951 40.7046 17.3429V9.06989C40.7046 7.50364 41.5287 6.71971 43.1769 6.71971H46.123V0.625H50.1149V19.3252H46.123V19.3268ZM46.123 10.0498H45.0772C44.9021 10.0498 44.7961 10.0739 44.756 10.1237C44.7158 10.1719 44.6965 10.2699 44.6965 10.4177V15.6562C44.6965 15.8843 44.7833 15.9983 44.9584 15.9983C45.0692 15.9983 45.164 15.9903 45.2443 15.9742L46.123 15.8521V10.0514V10.0498Z" fill="#212B36"/>
<path d="M54.0442 19.375C53.49 19.375 53.0739 19.2288 52.796 18.9348C52.5181 18.6409 52.3799 18.2248 52.3799 17.6867V6.72131H56.3719V15.9983H57.7984V6.72131H61.7903V19.3268C61.7903 19.3268 54.2337 19.375 54.0426 19.375H54.0442Z" fill="#212B36"/>
</svg>
