<svg width="32" height="36" viewBox="0 0 32 36" fill="none" xmlns="http://www.w3.org/2000/svg">
<path fill-rule="evenodd" clip-rule="evenodd" d="M15.9993 16.4123L17.0355 15.814L21.1268 13.4492L12.4188 8.41708L15.9993 6.34668L18.8258 7.97944L24.7086 11.3788L29.8347 8.41574L24.4559 5.30813L23.1684 4.56402L21.8809 3.82124L15.9993 0.421875L8.83161 4.56535L7.54406 5.30947L6.25652 6.05224L0.375 9.45161V16.2503V17.7372V19.2241V27.5111L1.41118 28.1106L5.50244 30.4755V12.4147L7.2927 11.3801L15.9993 16.4123ZM9.08296 32.5445L10.1191 33.1428L14.2104 35.5076V25.4433L15.9993 26.4779L17.7896 25.4433V35.5076L22.917 32.5459V22.4816L26.4989 20.4112V30.4768L31.625 27.5137V11.5247L15.9993 20.5544L9.08296 16.5568V32.5472V32.5445Z" fill="url(#paint0_linear_49_839)"/>
<defs>
<linearGradient id="paint0_linear_49_839" x1="0.375" y1="0.421875" x2="35.2269" y2="31.4636" gradientUnits="userSpaceOnUse">
<stop stop-color="#1E5DAE"/>
<stop offset="1" stop-color="#012364"/>
</linearGradient>
</defs>
</svg>
